<svg width="92" height="45" viewBox="0 0 92 45" fill="none" xmlns="http://www.w3.org/2000/svg">
<path fill-rule="evenodd" clip-rule="evenodd" d="M20.2159 10.2327C21.8385 9.24946 25.0543 6.84046 24.9363 5.07058C24.7888 2.85824 22.8711 2.85824 21.8385 3.15322C20.806 3.44819 13.873 6.103 9.74265 13.035C5.61234 19.967 5.46483 24.8342 5.61234 25.7191C5.62387 25.7883 5.63451 25.8684 5.64621 25.9564C5.7842 26.9949 6.07123 29.1551 9.74265 27.9315C12.9289 26.8696 16.479 22.7694 17.8558 20.852C18.3967 20.2129 19.5964 19.4656 20.0684 21.5894C20.1864 23.7133 18.8392 26.7024 18.1508 27.9315C17.9541 28.3248 17.8558 28.8754 19.0359 27.9315C20.511 26.7516 24.3463 23.6543 24.4938 23.5068C24.5148 23.4858 24.5628 23.3389 24.6407 23.1004C25.1097 21.6653 26.663 16.9121 29.9517 16.2798C33.787 15.5423 34.8195 18.0497 34.8195 18.7871C34.8195 19.5246 34.8195 24.6867 29.3616 26.4566C28.2995 26.6926 27.2473 26.5549 26.8539 26.4566V28.6689C27.149 29.6522 28.4176 31.1468 31.1318 29.2589C33.846 27.371 36.2946 24.9325 37.1797 23.9493C37.6222 23.8018 38.5663 23.5953 38.8023 23.9493C38.9978 24.2424 39.1285 23.7588 39.2373 23.3561C39.2928 23.1508 39.3426 22.9666 39.3924 22.9168C39.4316 22.8777 39.5853 22.4429 39.8065 21.8173C40.4179 20.0879 41.5451 16.8997 42.1951 16.5748C43.0801 16.1323 45.1453 16.4273 44.5552 18.0497C44.2187 18.9751 43.4021 20.8605 42.7626 22.3368C42.2811 23.4486 41.9001 24.3284 41.9001 24.3917C41.9001 24.5392 41.9001 24.8342 42.6376 24.0968C42.8118 23.9226 43.2001 23.4685 43.7129 22.8688C45.3709 20.9298 48.3313 17.4678 49.5706 17.0172C51.1932 16.4273 52.2258 17.0172 52.2258 18.0497C52.2258 19.0821 50.7507 27.489 50.4557 28.2265C50.1607 28.9639 50.4557 30.7338 52.6683 28.8164C54.881 26.8991 58.4213 24.2442 58.8638 23.9493C59.0303 23.8383 59.3221 22.8712 59.6921 21.6452C60.3054 19.6126 61.1334 16.8683 61.9615 16.1323H57.2412C56.4053 15.5915 55.235 14.2149 57.2412 13.035H63.7317C64.7151 10.7735 66.9769 6.1325 68.157 5.66053C69.6321 5.07057 71.1072 6.39798 70.2221 7.5779C69.3371 8.75782 67.1244 12.5926 67.1244 12.74C67.1244 12.858 69.1896 12.7892 70.2221 12.74C70.5663 12.7892 71.2547 13.1235 71.2547 14.0675C71.2547 15.0114 70.468 15.5423 70.0746 15.6898L65.3543 15.8373C63.9775 18.5413 61.2535 24.8637 61.3715 28.5215C61.5 32.5062 66.6704 27.8651 68.2898 26.4114C68.5286 26.1971 68.6902 26.052 68.747 26.0141C69.1896 25.7191 69.3722 24.883 69.4846 24.0968C69.6321 23.0643 71.9923 13.7725 78.7778 5.66053C79.1711 5.46388 80.1349 5.24756 80.8429 5.95551C81.551 6.66346 81.433 7.33208 81.2855 7.5779C78.7286 10.921 73.3789 19.0821 72.4348 24.9817C71.6972 27.6365 70.9597 31.9137 74.5 28.8164C75.68 28.1085 76.4668 27.3415 76.7126 27.0466C77.0076 23.9984 78.6303 17.5482 82.7606 16.1323C87.9234 14.3624 88.071 19.8196 87.6284 20.7045C87.3334 21.7369 85.8583 25.5717 81.8755 26.3091C80.2529 26.3091 79.6628 26.3091 79.6628 27.0466C79.6628 27.0938 79.6622 27.1476 79.6616 27.207C79.6518 28.0764 79.6286 30.1438 81.2855 30.1438C83.0556 30.1438 86.7434 27.6365 89.5461 24.2442C91.1687 23.5068 92.3488 24.9817 91.9062 25.8666C91.4637 26.7516 87.4809 31.3238 84.8257 32.3562C82.1705 33.3886 79.0728 33.6836 77.3027 30.5863C76.1226 32.0612 74.2049 33.3886 72.2873 33.0936C70.3696 32.7987 69.0421 30.4388 68.8945 30.1438C68.5995 30.5863 65.0593 33.5361 62.109 33.2411C59.1588 32.9461 58.5688 29.4064 58.5688 28.374C57.3887 29.8489 55.176 32.3562 51.3407 32.5037C48.7446 32.5037 47.8005 30.7338 47.653 29.8489C47.7021 28.0298 47.948 24.0968 48.538 22.9168C49.2153 21.5625 47.405 23.4416 46.9903 23.872C46.9533 23.9104 46.9275 23.9372 46.9154 23.9493C46.8785 23.9861 46.4821 24.4839 45.8874 25.2306C44.1034 27.4707 40.5356 31.9506 39.5399 32.9461C38.2123 34.2736 37.1797 32.0612 37.0322 31.6187C36.8847 31.1763 37.6222 28.374 37.7697 27.9315C37.9173 27.489 36.4422 28.8164 36.1471 29.2589C35.8521 29.7014 31.7218 33.6836 28.4766 33.2411C25.2313 32.7987 23.6087 29.7014 23.7562 28.2265C23.5138 27.9841 22.9727 28.6378 22.7055 28.9606C22.6475 29.0306 22.6024 29.0851 22.5761 29.1114C22.4286 29.2589 16.6757 33.2411 15.9381 33.3886C15.2006 33.5361 14.0205 36.1909 14.0205 36.3384C14.0205 36.4859 10.3327 43.1229 4.87482 44.7453C-0.583082 46.3677 -0.140549 39.7307 0.154472 39.1407C0.1723 39.1051 0.192821 39.0576 0.218052 38.9992C0.61037 38.0911 2.14164 34.5467 12.3978 31.9137C13.4304 31.4713 14.758 29.2589 14.9055 28.8164C14.9144 28.7899 14.9232 28.7644 14.9316 28.7402C15.0633 28.361 15.0854 28.2973 13.2829 29.4064C13.1946 29.4607 13.1076 29.5144 13.0217 29.5674C11.2412 30.6659 9.9358 31.4713 7.82499 31.4713C5.61234 31.4713 2.36709 30.1438 2.5146 26.1616C2.66211 22.1794 4.4322 6.98794 21.101 0.055919C29.3616 -0.68153 28.0339 6.103 27.4439 6.98794C27.3724 7.09529 27.2747 7.25039 27.155 7.4406C26.2878 8.81837 24.2612 12.0383 22.5761 12.2975C20.6584 12.5925 19.6259 12.0026 20.2159 10.2327ZM83.6353 18.9144C82.3472 19.0755 81.0292 21.8642 80.5375 23.3391C80.3913 23.929 81.3877 23.9033 82.014 23.4865C82.9005 22.8966 84.5154 21.1267 84.8104 20.0943C84.9579 19.0618 84.8153 18.7669 83.6353 18.9144ZM31.2717 19.0618C29.5016 18.9439 28.174 22.0608 27.7315 23.634C27.8298 23.6832 28.174 23.7225 28.764 23.4865C29.5016 23.1916 33.4844 19.2093 31.2717 19.0618ZM10.2497 35.7168C8.61915 36.3032 2.94964 38.3421 2.94964 40.7429C2.94964 43.3977 6.63741 40.7429 7.07994 40.3004C7.52248 39.8579 10.0302 37.0556 10.6202 35.5807C10.5496 35.6089 10.4223 35.6547 10.2497 35.7168Z" fill="#52B788"/>
</svg>
