<svg xmlns="http://www.w3.org/2000/svg" width="24" height="24" fill="none" viewBox="0 0 24 24">
  <g clip-path="url(#a)">
    <path fill="#DD4B39" d="M12 0c6.6 0 12 5.4 12 12s-5.4 12-12 12S0 18.6 0 12 5.4 0 12 0Z"/>
    <path fill="#fff" d="M8.34 15.072c-1.8-1.8-1.8-4.95.076-6.75 1.35-1.35 3.3-1.65 5.025-.975l.675.375.75.525-1.2 1.2-.45-.3c-1.05-.674-2.55-.525-3.525.45-1.125 1.126-1.2 3.15 0 4.35 1.125 1.2 3.15 1.2 4.2 0 .3-.3.6-.75.675-1.2v-.15h-2.7v-1.5h4.275l.075.376v1.05c-.075.975-.45 1.95-1.125 2.625-1.8 1.724-4.95 1.724-6.75-.076Z"/>
  </g>
  <defs>
    <clipPath id="a">
      <path fill="#fff" d="M0 0h24v24H0z"/>
    </clipPath>
  </defs>
</svg>
