<svg xmlns="http://www.w3.org/2000/svg" width="20" height="20" fill="none" viewBox="0 0 20 20">
  <g clip-path="url(#a)">
    <path fill="#fff" d="M10 18.333a7.5 7.5 0 0 0 7.5-7.5 7.5 7.5 0 0 0-7.5 7.5ZM4.667 8.541a2.084 2.084 0 0 0 3.266 1.717l-.016.158a2.084 2.084 0 0 0 4.166 0l-.016-.158a2.084 2.084 0 0 0 3.267-1.717c0-.833-.492-1.541-1.192-1.875a2.076 2.076 0 0 0 1.191-1.875 2.084 2.084 0 0 0-3.266-1.716l.016-.159a2.084 2.084 0 0 0-4.166 0l.016.159a2.084 2.084 0 0 0-3.267 1.717c0 .833.492 1.541 1.192 1.874a2.076 2.076 0 0 0-1.191 1.875ZM10 4.583a2.084 2.084 0 1 1-.002 4.168A2.084 2.084 0 0 1 10 4.583Zm-7.5 6.25a7.5 7.5 0 0 0 7.5 7.5 7.5 7.5 0 0 0-7.5-7.5Z"/>
  </g>
  <defs>
    <clipPath id="a">
      <path fill="#fff" d="M0 0h20v20H0z"/>
    </clipPath>
  </defs>
</svg>
