<svg xmlns="http://www.w3.org/2000/svg" width="20" height="20" fill="none" viewBox="0 0 20 20">
  <g clip-path="url(#a)">
    <path fill="#fff" d="M17.5 4.167c-.925-.292-1.941-.417-2.916-.417-1.625 0-3.375.333-4.584 1.25-1.208-.917-2.958-1.25-4.583-1.25S2.042 4.083.833 5v12.208c0 .209.209.417.417.417.083 0 .125-.042.208-.042 1.125-.541 2.75-.916 3.959-.916 1.625 0 3.375.333 4.583 1.25 1.125-.709 3.167-1.25 4.584-1.25 1.375 0 2.791.25 3.958.875a.38.38 0 0 0 .208.041.448.448 0 0 0 .417-.416V5c-.5-.375-1.042-.625-1.667-.833Zm0 11.25c-.916-.292-1.916-.417-2.916-.417-1.417 0-3.459.542-4.584 1.25V6.667c1.125-.709 3.167-1.25 4.584-1.25 1 0 2 .125 2.916.416v9.584Z"/>
    <path fill="#fff" d="M14.584 8.75c.733 0 1.441.075 2.083.217V7.7c-.659-.125-1.367-.2-2.084-.2-1.416 0-2.7.242-3.75.692v1.383c.942-.533 2.25-.825 3.75-.825Zm-3.75 1.659v1.383c.941-.534 2.25-.825 3.75-.825a9.79 9.79 0 0 1 2.083.216V9.918c-.659-.125-1.367-.2-2.084-.2-1.416 0-2.7.25-3.75.691Zm3.75 1.532c-1.417 0-2.7.242-3.75.692v1.383c.941-.533 2.25-.825 3.75-.825.733 0 1.441.075 2.083.217v-1.267c-.659-.133-1.367-.2-2.084-.2Z"/>
  </g>
  <defs>
    <clipPath id="a">
      <path fill="#fff" d="M0 0h20v20H0z"/>
    </clipPath>
  </defs>
</svg>
