<svg xmlns="http://www.w3.org/2000/svg" width="20" height="20" fill="none" viewBox="0 0 20 20">
  <g clip-path="url(#a)">
    <path fill="#fff" d="M7.125 10Zm8.691-1.342Zm-2.908-.633c-.15-2.325-1.091-4.591-2.858-6.358a10.157 10.157 0 0 0-2.96 6.358c1.067.567 2.05 1.3 2.909 2.192a11.965 11.965 0 0 1 2.908-2.192Zm-5.416 2.209c-.117-.084-.25-.159-.375-.242.125.092.258.158.375.242Zm5.35-.209c-.109.075-.226.134-.334.217.109-.083.225-.142.334-.217ZM10 12.875c-1.792-2.733-4.85-4.541-8.333-4.541 0 4.433 2.8 8.183 6.691 9.575a8.965 8.965 0 0 0 1.642.425c.566-.1 1.108-.242 1.642-.425 3.891-1.392 6.691-5.142 6.691-9.575-3.483 0-6.541 1.808-8.333 4.541Z"/>
  </g>
  <defs>
    <clipPath id="a">
      <path fill="#fff" d="M0 0h20v20H0z"/>
    </clipPath>
  </defs>
</svg>
