<svg xmlns="http://www.w3.org/2000/svg" width="20" height="20" fill="none" viewBox="0 0 20 20">
  <g clip-path="url(#a)">
    <path fill="#fff" d="M1.667 16.667h1.667a.836.836 0 0 0 .833-.833v-7.5a.836.836 0 0 0-.833-.834H1.667v9.167Zm16.525-5.933a1.65 1.65 0 0 0 .142-.667v-.9c0-.917-.75-1.667-1.667-1.667h-4.583l.766-3.875a.835.835 0 0 0-.066-.55 4.002 4.002 0 0 0-.734-1.016l-.383-.392-5.342 5.342a1.672 1.672 0 0 0-.491 1.183v6.533a1.95 1.95 0 0 0 1.95 1.942h6.758c.583 0 1.133-.308 1.433-.808l2.217-5.125Z"/>
  </g>
  <defs>
    <clipPath id="a">
      <path fill="#fff" d="M0 0h20v20H0z"/>
    </clipPath>
  </defs>
</svg>
